<?xml version="1.0" encoding="UTF-8" standalone="no"?>
<!-- Generator: Adobe Illustrator 25.4.1, SVG Export Plug-In . SVG Version: 6.00 Build 0)  -->

<svg
   version="1.1"
   id="Layer_1"
   x="0px"
   y="0px"
   viewBox="0 0 800 800"
   xml:space="preserve"
   sodipodi:docname="devkon logo.png"
   width="800"
   height="800"
   inkscape:version="1.2.2 (b0a8486541, 2022-12-01)"
   inkscape:export-filename="devkon logo.png"
   inkscape:export-xdpi="96"
   inkscape:export-ydpi="96"
   inkscape:dataloss="true"
   xmlns:inkscape="http://www.inkscape.org/namespaces/inkscape"
   xmlns:sodipodi="http://sodipodi.sourceforge.net/DTD/sodipodi-0.dtd"
   xmlns="http://www.w3.org/2000/svg"
   xmlns:svg="http://www.w3.org/2000/svg"><defs
   id="defs27" /><sodipodi:namedview
   id="namedview25"
   pagecolor="#505050"
   bordercolor="#eeeeee"
   borderopacity="1"
   inkscape:showpageshadow="0"
   inkscape:pageopacity="0"
   inkscape:pagecheckerboard="0"
   inkscape:deskcolor="#505050"
   showgrid="false"
   inkscape:zoom="1.0177348"
   inkscape:cx="404.82059"
   inkscape:cy="564.4889"
   inkscape:window-width="2560"
   inkscape:window-height="1371"
   inkscape:window-x="1920"
   inkscape:window-y="32"
   inkscape:window-maximized="1"
   inkscape:current-layer="Layer_1" />
<style
   type="text/css"
   id="style18">
	.st0{fill-rule:evenodd;clip-rule:evenodd;fill:#D02C3B;}
</style>
<path
   id="path4789-2"
   style="clip-rule:evenodd;fill:#ffffff;fill-opacity:1;fill-rule:evenodd;stroke-width:1.43922"
   class="st0"
   inkscape:label="path20"
   d="M 496.22567,16.408736 C 449.82058,43.263817 403.41524,70.118452 357.00894,96.971435 338.15311,326.4403 319.29793,555.90921 300.44269,785.37811 c 47.01439,-27.1413 94.02754,-54.28474 141.04121,-81.42731 19.30182,-229.79278 38.60608,-459.58536 57.91266,-689.377745 -1.05696,0.611894 -2.11393,1.223788 -3.17089,1.835681 z M 275.42662,143.86628 c -46.23363,26.81961 -92.46757,53.6387 -138.70132,80.45812 -9.83423,118.45475 -19.67005,236.90937 -29.50536,355.36403 47.60456,-27.48466 95.20884,-54.96977 142.8134,-82.4544 9.5163,-118.39996 19.0366,-236.7996 28.5511,-355.19969 -1.0526,0.61064 -2.10521,1.22129 -3.15782,1.83194 z m 414.22161,75.14715 c -46.80692,27.02399 -93.61365,54.0483 -140.41936,81.07439 -9.76284,119.519 -19.5229,239.03825 -29.28499,358.55731 47.46561,-27.40115 94.9297,-54.80498 142.39322,-82.20977 10.16029,-119.7507 20.32067,-239.50139 30.48202,-359.252 -1.05696,0.61002 -2.11393,1.22005 -3.17089,1.83007 z" /><g
   id="g22"
   transform="matrix(1.2464057,-0.71961271,0.71961271,1.2464057,-1186.1735,406.50784)"
   style="fill:#131c23;fill-opacity:1">
	<path
   id="path4789"
   style="fill:#131c23;fill-opacity:1"
   class="st0"
   inkscape:label="path20"
   d="M 960.6,356.4 829.2,546.9 h -98.4 l 132,-190.3 z m 177.1,0 -265.1,381.4 h -97 l 264,-381.3 z m -53,189.1 h 99 l -133.9,192.3 h -98.1 z" />
</g>
</svg>
